<?xml version="1.0" standalone="no"?>
<!DOCTYPE svg PUBLIC "-//W3C//DTD SVG 20010904//EN"
 "http://www.w3.org/TR/2001/REC-SVG-20010904/DTD/svg10.dtd">
<svg version="1.0" xmlns="http://www.w3.org/2000/svg"
 width="512.000000pt" height="512.000000pt" viewBox="0 0 512.000000 512.000000"
 preserveAspectRatio="xMidYMid meet">
<metadata>
Created by potrace 1.11, written by Peter Selinger 2001-2013
</metadata>
<g transform="translate(0.000000,512.000000) scale(0.100000,-0.100000)"
fill="#000000" stroke="none">
<path d="M4310 3618 c-285 -23 -537 -172 -692 -410 -60 -92 -86 -148 -116
-253 -28 -97 -33 -149 -36 -395 -2 -195 -5 -219 -24 -263 -35 -78 -77 -123
-148 -158 -56 -28 -76 -32 -134 -32 -139 2 -256 92 -290 222 -6 24 -13 144
-14 275 -2 130 -9 253 -15 281 -48 203 -116 330 -251 466 -90 90 -188 157
-295 200 -138 55 -178 62 -345 63 -133 1 -166 -2 -234 -22 -245 -71 -425 -210
-563 -437 -45 -73 -96 -227 -108 -328 -4 -32 -8 -154 -9 -271 l-2 -213 -32
-66 c-37 -74 -73 -109 -151 -145 -107 -49 -228 -29 -329 57 -75 62 -124 83
-203 87 -127 6 -234 -57 -289 -171 -32 -66 -35 -169 -6 -239 61 -148 314 -312
548 -355 76 -14 251 -11 334 4 328 63 605 316 698 637 31 108 37 173 41 424 2
212 7 238 56 309 36 52 60 72 127 103 147 67 321 0 393 -152 27 -57 28 -62 29
-255 2 -271 9 -336 51 -459 67 -200 195 -365 370 -478 70 -46 212 -108 269
-119 19 -3 51 -9 70 -13 45 -9 252 -9 310 0 25 4 81 19 125 33 288 93 516 333
594 627 27 101 31 144 33 378 1 128 6 221 14 246 27 91 101 169 192 203 24 8
96 14 209 16 162 3 175 5 232 31 68 30 123 84 152 148 l18 41 78 1 c43 1 84 2
91 3 22 2 58 48 60 79 1 19 -6 38 -22 55 -26 28 -40 30 -152 27 -50 -1 -51 -1
-69 39 -38 85 -131 160 -217 176 -51 10 -246 11 -348 3z"/>
</g>
</svg>
